<svg id="visual" viewBox="0 0 900 900" width="900" height="900" xmlns="http://www.w3.org/2000/svg" xmlns:xlink="http://www.w3.org/1999/xlink" version="1.1"><rect x="0" y="0" width="900" height="900" fill="#002233"></rect><path d="M594 900L471 900L471 871L453 871L453 842L238 842L238 813L312 813L312 784L286 784L286 755L501 755L501 726L645 726L645 697L510 697L510 668L654 668L654 639L67 639L67 610L230 610L230 581L110 581L110 552L314 552L314 523L437 523L437 494L656 494L656 465L456 465L456 435L652 435L652 406L707 406L707 377L256 377L256 348L530 348L530 319L80 319L80 290L443 290L443 261L299 261L299 232L336 232L336 203L128 203L128 174L673 174L673 145L183 145L183 116L519 116L519 87L877 87L877 58L417 58L417 29L636 29L636 0L900 0L900 29L900 29L900 58L900 58L900 87L900 87L900 116L900 116L900 145L900 145L900 174L900 174L900 203L900 203L900 232L900 232L900 261L900 261L900 290L900 290L900 319L900 319L900 348L900 348L900 377L900 377L900 406L900 406L900 435L900 435L900 465L900 465L900 494L900 494L900 523L900 523L900 552L900 552L900 581L900 581L900 610L900 610L900 639L900 639L900 668L900 668L900 697L900 697L900 726L900 726L900 755L900 755L900 784L900 784L900 813L900 813L900 842L900 842L900 871L900 871L900 900L900 900Z" fill="#0066FF" stroke-linecap="square" stroke-linejoin="miter"></path></svg>